<?xml version="1.0" encoding="UTF-8"?>
<svg xmlns="http://www.w3.org/2000/svg" xmlns:xlink="http://www.w3.org/1999/xlink" width="250" height="250">
  <defs>
    <path id="a" d="M0 0L250 0 250 250 0 250z"></path>
  </defs>
  <g fill="none" fill-rule="evenodd">
    <mask id="b" fill="#fff">
      <use xlink:href="#a"></use>
    </mask>
    <path d="M250 124.963C250 193.988 194.07 250 124.971 250 56.027 250-.026 193.988-.026 124.963-.026 56.003 56.027 0 124.97 0 194.07 0 250 56.004 250 124.963" fill="#1A1919" mask="url(#b)"></path>
    <path d="M250 124.963C250 193.988 194.07 250 124.971 250 56.027 250-.026 193.988-.026 124.963-.026 56.003 56.027 0 124.97 0 194.07 0 250 56.004 250 124.963z" mask="url(#b)"></path>
    <path d="M246.51 124.963c0 67.09-54.394 121.54-121.539 121.54-67.03 0-121.495-54.45-121.495-121.54C3.476 57.926 57.94 3.489 124.97 3.489c67.145 0 121.54 54.437 121.54 121.474" fill="#FFFFFE"></path>
    <path d="M246.51 124.963c0 67.09-54.394 121.54-121.539 121.54-67.03 0-121.495-54.45-121.495-121.54C3.476 57.926 57.94 3.489 124.97 3.489c67.145 0 121.54 54.437 121.54 121.474z"></path>
    <path d="M38.338 105.926l.55.115c6.077.723 16.892 1.173 15.851 9.71-.9 7.624-8.388 7.576-17.376 6.451-9.01-1.076-16.464-2.712-15.524-10.151.498-4.51 3.06-6.412 7.476-6.998l1.11 4.237c-2.072.2-4.325.538-4.612 3.163-.45 3.474 4.287 4.347 12 5.287 11.166 1.349 12.666-.375 12.864-2.24.3-1.747.252-3.7-7.4-4.622l-1.724-.216-.49 3.576-3.638-.485.913-7.827" fill="#000"></path>
    <path fill="#000" d="M31.1893048 80.5878348L34.6019098 82.0033585 31.938155 88.7012989 41.3543517 92.4500113 43.7270339 86.4263187 47.2282838 87.8286132 44.8511914 93.798948 55.0524019 97.8783902 57.7293872 91.126651 61.2178475 92.5024871 56.8914511 103.213724 26.8629084 91.3255299 31.1893048 80.5878348"></path>
    <path d="M47.714 62.49c-.874.498-1.747.961-2.276 1.773-3.461 4.939 3.74 9.975 6.99 12.25 3.55 2.439 10.337 6.738 13.724 1.95a6.42 6.42 0 0 0 .94-2.475l3.052 2.126c-.052 1.314-.429 2.337-1.2 3.35-5 7.198-13.266 2.824-18.84-1.049-5.301-3.699-13.553-10.402-8.551-17.652.851-1.15 1.6-1.887 2.963-2.513l3.198 2.24" fill="#000"></path>
    <path fill="#000" d="M60.5651394 43.5901913L63.0652761 46.3639122 57.7293872 51.2146163 64.4681575 58.7508467 69.2664443 54.4249005 71.7798116 57.1765727 67.0295959 61.5025188 74.3681521 69.66449 79.7181536 64.827456 82.1838908 67.5742775 73.6404707 75.2873381 51.9784994 51.3248596 60.5651394 43.5901913"></path>
    <path d="M85.817 65.114L70.593 36.64l4.464-2.403c2.76-1.473 7.127-3.647 10.963 3.501 1.412 2.65 2.823 7.175 0 9.402l12.715 11.024-3.965 2.14-12.626-11.166-.04.039 7.467 13.9-3.754 2.037zm-4.696-17.877c2.862-1.323 2.862-3.686 1.31-6.562-1.452-2.712-3-4.749-5.826-3.162l-.574.314 5.09 9.41z" fill="#000"></path>
    <path fill="#000" d="M105.597149 22.9658793L106.55857 26.6131678 101.857307 27.8033542 109.093988 55.4254685 104.971343 56.5014429 97.7342208 28.8753598 92.8693402 30.1625603 91.8946882 26.5509906 105.597149 22.9658793"></path>
    <path fill="#000" d="M121.998645 53.7369825L117.685479 54.0368442 115.36175 21.8369881 119.682854 21.5150778 121.998645 53.7369825"></path>
    <path fill="#000" d="M143.749702 22.8644555L143.374836 26.5509906 136.075531 25.7396001 134.939025 35.824655 141.438322 36.5522606 141.036994 40.300532 134.435822 39.5151589 132.848595 54.1245978 128.526608 53.6399684 132.247486 21.5503556 143.749702 22.8644555"></path>
    <path fill="#000" d="M148.226045 57.5381706L144.15103 56.2637584 153.725111 25.4269502 157.85349 26.7141507 148.226045 57.5381706"></path>
    <path d="M178.617 41.213c-.512-.763-1.165-1.539-2.038-2.037-5.252-2.849-9.514 4.811-11.387 8.36-2.063 3.789-5.592 11.016-.45 13.79.825.423 1.636.675 2.57.675l-1.81 3.298c-1.188.088-2.373-.247-3.437-.811-7.664-4.185-4.212-12.938-1.027-18.848 3.078-5.688 8.842-14.653 16.564-10.437 1.314.674 2.09 1.35 2.875 2.562l-1.86 3.448" fill="#000"></path>
    <path fill="#000" d="M198.780053 51.9510414L196.318726 54.7640088 190.867731 49.9622527 184.229954 57.5381706 188.95415 61.8641168 186.541776 64.6241674 181.668957 60.303072 174.404051 68.500762 179.855487 73.3646953 177.315658 76.125187 168.701675 68.451814 190.130789 44.3266164 198.780053 51.9510414"></path>
    <path fill="#000" d="M213.130812 70.1411819L210.104539 72.28828 205.906479 66.4281884 197.606502 72.337228 201.408526 77.5892177 198.383136 79.7632151 194.603603 74.5151942 185.730742 80.8876965 189.88029 86.7521978 186.91576 88.9530946 180.1642 79.5863849 206.406154 60.7881424 213.130812 70.1411819"></path>
    <path d="M188.954 92.763l29.967-11.924 1.9 4.775c1.16 2.889 2.814 7.51-4.7 10.46-2.766 1.178-7.453 2.051-9.377-.996l-12.375 11.298-1.613-4.124 12.477-11.262-.063-.061-14.664 5.834-1.552-4zm18.276-2.65c.965 3.064 3.303 3.338 6.35 2.139 2.802-1.173 5.116-2.488 3.841-5.45l-.25-.627-9.941 3.937zm20.053 16.8l.476 4.75c.538 5.05.825 10.786-15.501 12.475-14.8 1.5-15.94-3.338-16.777-10.963l-.349-2.963 32.15-3.298zm-15.427 12.714c4.94-.538 13.478-.926 12.265-8.088l-24.865 2.576c.538 7.06 7.1 6.05 12.6 5.512z" fill="#000"></path>
    <path d="M234.908 125.015c0-60.752-49.177-109.925-109.884-109.925-60.758 0-109.888 49.173-109.888 109.925 0 60.7 49.13 109.874 109.888 109.874 60.707 0 109.884-49.174 109.884-109.874zm5.825 0c0 63.897-51.779 115.698-115.709 115.698-63.956 0-115.763-51.8-115.763-115.698 0-63.94 51.807-115.75 115.763-115.75 63.93 0 115.71 51.81 115.71 115.75z" fill="#1E221F"></path>
    <path d="M234.908 125.015c0-60.752-49.177-109.925-109.884-109.925-60.758 0-109.888 49.173-109.888 109.925 0 60.7 49.13 109.874 109.888 109.874 60.707 0 109.884-49.174 109.884-109.874zm5.825 0c0 63.897-51.779 115.698-115.709 115.698-63.956 0-115.763-51.8-115.763-115.698 0-63.94 51.807-115.75 115.763-115.75 63.93 0 115.71 51.81 115.71 115.75z"></path>
    <path d="M181.492 144.053c1.923-5.976 3.051-12.29 3.051-18.887 0-33.03-26.69-59.712-59.683-59.712-33.054 0-59.766 26.682-59.766 59.712 0 32.97 26.712 59.724 59.766 59.724 17.739 0 33.704-7.764 44.68-20.104.34-.423.913-.423 1.315-.11.472.362.472.988.15 1.376-11.38 12.714-27.815 20.788-46.145 20.788-34.116 0-61.667-27.64-61.667-61.674 0-34.087 27.551-61.666 61.667-61.666 34.003 0 61.682 27.579 61.682 61.666 0 6.8-1.125 13.299-3.162 19.46-.19.551-.777.788-1.212.639-.54-.137-.813-.728-.676-1.212" fill="#1A1919"></path>
    <path d="M181.492 144.053c1.923-5.976 3.051-12.29 3.051-18.887 0-33.03-26.69-59.712-59.683-59.712-33.054 0-59.766 26.682-59.766 59.712 0 32.97 26.712 59.724 59.766 59.724 17.739 0 33.704-7.764 44.68-20.104.34-.423.913-.423 1.315-.11.472.362.472.988.15 1.376-11.38 12.714-27.815 20.788-46.145 20.788-34.116 0-61.667-27.64-61.667-61.674 0-34.087 27.551-61.666 61.667-61.666 34.003 0 61.682 27.579 61.682 61.666 0 6.8-1.125 13.299-3.162 19.46-.19.551-.777.788-1.212.639-.54-.137-.813-.728-.676-1.212z"></path>
    <path fill="#000" d="M145.226675 146.825964L149.976891 146.825964 158.126922 155.076571 157.85349 146.825964 163.489713 146.825964 163.489713 162.891496 158.726267 162.891496 150.536544 154.640889 150.850108 162.891496 145.226675 162.891496 145.226675 146.825964"></path>
    <path d="M181.443 161.678c-1.588.96-3.788 1.412-5.966 1.412-6.775 0-9.037-4.477-9.037-8.128 0-4.749 3.44-8.387 9.315-8.387 2.1 0 4.035.388 5.6 1.125v4.638c-1.663-1-3.026-1.45-4.728-1.45-2.8 0-4.55 1.499-4.55 3.951 0 2.424 1.825 3.963 4.59 3.963 1.711 0 2.986-.387 4.776-1.388v4.264" fill="#000"></path>
    <path fill="#000" d="M184.879134 162.891496L190.506096 162.891496 190.506096 146.825964 184.879134 146.825964z"></path>
    <path d="M125.536 124.253l10.338 38.638c-26.638 7.121-52.892-4.38-58.691-25.726-5.527-20.651 10.297-42.965 35.55-50.84-11.838 4.224-19.175 15.001-16.574 25.051 2.938 10.676 16.09 16.413 29.377 12.877m-3.088-40.552c19.378-4.326 38.03 4.225 42.131 19.712 4.286 16.016-8.428 33.35-28.503 38.752l-7.766-29.038c10.103-2.676 16.414-11.302 14.289-19.328-2.038-7.51-10.823-11.796-20.151-10.098" fill="#000"></path>
    <path d="M123.696 107.588c-6.699 1.786-13.3-1.124-14.752-6.45-1.349-5.35 2.801-11.135 9.553-12.886 6.664-1.764 13.227 1.075 14.69 6.425 1.438 5.336-2.875 11.112-9.49 12.911" fill="#000"></path>
    <path fill="#1A1919" d="M72.4475143 171.400513L46.7008251 194.16134 42.2028723 189.075597 67.9486795 166.31477 72.4475143 171.400513"></path>
    <path d="M80.332 188.217c-.342-1.776-1.05-3.603-2.518-4.76-1.65-1.294-3.477-1.109-4.774.54-3.49 4.444 4.45 11.087-1.295 18.396-3.777 4.803-9.378 6.252-14.396 2.312-1.505-1.185-3.004-3.113-3.518-4.967l4-5.089c.578 1.847 1.345 3.376 2.922 4.616 1.72 1.352 3.985 1.274 5.391-.517 1.634-2.078.605-4.161-.056-6.42-1.448-4.499-1.77-7.998 1.326-11.938 3.352-4.267 8.725-6.013 13.313-2.41 1.72 1.352 2.894 3.03 3.688 5.041l-4.083 5.196m3.18 25.243c4.113 1.855 7.986-5.947 9.11-8.44 1.254-2.781 4.412-10.556.3-12.411-4.114-1.857-7.853 5.655-9.109 8.44-1.125 2.493-4.415 10.555-.301 12.411zM99.226 208c-5.304 11.757-12.776 13.687-18.299 11.193-5.527-2.492-9.021-9.369-3.72-21.126 5.304-11.755 12.775-13.686 18.301-11.192 5.523 2.492 9.022 9.37 3.718 21.125z" fill="#1A1919"></path>
    <path fill="#1A1919" d="M126.388548 193.951437L125.05182 228.286484 118.449765 228.029397 119.556723 199.61309 116.275542 199.48609 116.507077 193.564703 126.388548 193.951437"></path>
    <path d="M136.771 200.949l-.09.011-3.32 13.599 5.151-.693-1.74-12.917zm5.506-8.651l2.785 20.685 2.754-.37.695 5.15-2.758.37 1.107 8.219-6.549.884-1.106-8.222-9.894 1.332-.679-5.059 6.237-21.992 7.408-.997zm13.353 13.753c.806 2.083 3.857 10.87 7.004 9.654 3.147-1.216-.501-9.772-1.307-11.854-.803-2.082-3.857-10.873-7.004-9.656-3.146 1.217.503 9.774 1.307 11.856zm11.862-4.582c2.186 5.654 5.07 17.047-2.625 20.019-7.695 2.973-13.217-7.401-15.402-13.056-2.185-5.654-5.071-17.045 2.624-20.019 7.697-2.973 13.217 7.402 15.403 13.056zm8.52-5.535c1.297 1.82 6.436 9.574 9.182 7.615 2.745-1.959-2.915-9.342-4.212-11.16-1.296-1.818-6.435-9.57-9.182-7.612-2.746 1.958 2.914 9.342 4.211 11.157zm10.352-7.382c3.519 4.935 9.147 15.252 2.43 20.044-6.714 4.79-14.643-3.887-18.162-8.822-3.523-4.935-9.147-15.254-2.433-20.044 6.718-4.79 14.642 3.888 18.165 8.822z" fill="#1A1919"></path>
    <path fill="#1A1919" d="M182.990691 166.753097L208.468359 189.815991 204.03259 194.713879 182.947912 175.627681 180.745463 178.060089 176.352032 174.085598 182.990691 166.753097"></path>
  </g>
</svg>
